<?xml version="1.0" encoding="utf-8"?>
<!-- Generator: Adobe Illustrator 16.0.0, SVG Export Plug-In . SVG Version: 6.00 Build 0)  -->
<!DOCTYPE svg PUBLIC "-//W3C//DTD SVG 1.1//EN" "http://www.w3.org/Graphics/SVG/1.1/DTD/svg11.dtd">
<svg version="1.1" id="图层_1" xmlns="http://www.w3.org/2000/svg" xmlns:xlink="http://www.w3.org/1999/xlink" x="0px" y="0px"
	 width="800px" height="800px" viewBox="0 0 800 800" enable-background="new 0 0 800 800" xml:space="preserve">
<path fill="#E4E4E4" stroke="#B3B3B3" stroke-width="60" d="M530,400c0-115.503,50.215-219.272,130-290.685
	C591,47.557,499.889,10,400,10s-191.001,37.558-260,99.314C219.785,180.726,270,284.497,270,400
	c0,115.504-50.215,219.274-130,290.687C208.999,752.443,300.112,790,400,790s191-37.557,260-99.313
	C580.215,619.274,530,515.504,530,400z"/>
<path fill="none" stroke="#B3B3B3" stroke-width="60" d="M790,400c0-115.503-50.216-219.272-130-290.685
	C580.215,180.727,530,284.497,530,400c0,115.504,50.215,219.274,130,290.687C739.784,619.274,790,515.504,790,400z"/>
<line fill="none" stroke="#B3B3B3" stroke-width="60" x1="400" y1="0" x2="400" y2="800"/>
<line fill="none" stroke="#B3B3B3" stroke-width="60" x1="0" y1="400" x2="800" y2="400"/>
<path fill="none" stroke="#B3B3B3" stroke-width="60" d="M10,400c0-115.503,50.215-219.272,130-290.685
	C219.785,180.727,270,284.497,270,400c0,115.504-50.215,219.274-130,290.687C60.215,619.274,10,515.504,10,400z"/>
</svg>
