<?xml version="1.0" encoding="utf-8"?>
<!-- Generator: Adobe Illustrator 16.0.0, SVG Export Plug-In . SVG Version: 6.00 Build 0)  -->
<!DOCTYPE svg PUBLIC "-//W3C//DTD SVG 1.1//EN" "http://www.w3.org/Graphics/SVG/1.1/DTD/svg11.dtd">
<svg version="1.1" id="图层_1" xmlns="http://www.w3.org/2000/svg" xmlns:xlink="http://www.w3.org/1999/xlink" x="0px" y="0px"
	 width="800px" height="800px" viewBox="0 0 800 800" enable-background="new 0 0 800 800" xml:space="preserve">
<path fill="none" stroke="#F15A24" stroke-width="60" d="M362.5,112.5"/>
<path fill="none" stroke="#F15A24" stroke-width="60" d="M437.5,112.5"/>
<g>
	<g>
		<path fill="#B3B3B3" d="M823.083,451.447c0,0-0.341,2.199-1.002,6.461c-0.165,1.065-0.35,2.26-0.555,3.581
			c-0.103,0.661-0.21,1.353-0.322,2.076c-0.114,0.729-0.213,1.439-0.396,2.379c-0.671,3.574-1.448,7.714-2.329,12.4
			c-0.42,2.396-0.998,4.656-1.547,7.169c-0.563,2.483-1.156,5.095-1.776,7.831c-0.608,2.739-1.428,5.56-2.185,8.522
			c-0.804,2.951-1.538,6.051-2.498,9.217c-3.663,12.711-8.484,27.138-14.833,42.905c-6.353,15.762-14.393,32.807-24.5,50.582
			c-10.105,17.771-22.368,36.228-37.064,54.669c-1.849,2.296-3.675,4.639-5.589,6.94c-1.948,2.272-3.912,4.563-5.891,6.87
			c-0.99,1.152-1.984,2.309-2.982,3.469c-1.033,1.13-2.07,2.264-3.11,3.402c-2.09,2.268-4.194,4.552-6.314,6.854
			c-8.686,9.006-17.828,18.075-27.815,26.711c-19.768,17.492-42.376,33.768-67.334,48.286c-12.562,7.12-25.663,13.866-39.358,19.962
			c-3.417,1.535-6.917,2.925-10.396,4.399c-1.745,0.726-3.493,1.452-5.245,2.181c-1.776,0.668-3.556,1.337-5.34,2.008
			c-3.576,1.315-7.132,2.736-10.77,3.97c-3.643,1.216-7.301,2.438-10.975,3.664l-1.378,0.458l-0.689,0.229
			c-0.078,0.033-1.816,0.569-1.388,0.429l-2.604,0.741c-1.738,0.495-3.48,0.991-5.227,1.487c-3.491,0.994-6.997,1.992-10.517,2.994
			c-0.417,0.128-0.923,0.245-1.422,0.362l-1.489,0.354l-2.983,0.705c-1.991,0.468-3.986,0.936-5.984,1.405
			c-1.999,0.464-4.002,0.93-6.008,1.396c-1.998,0.446-4.041,0.982-5.986,1.289c-3.933,0.707-7.881,1.417-11.844,2.129
			c-1.98,0.353-3.965,0.706-5.952,1.061c-1.984,0.371-4.006,0.55-6.013,0.833c-8.047,1.001-16.119,2.218-24.332,2.686
			c-32.738,2.617-66.692,1.729-100.603-4c-4.233-0.728-8.478-1.457-12.734-2.188c-4.227-0.879-8.446-1.849-12.682-2.777
			c-2.116-0.472-4.235-0.943-6.356-1.415c-2.123-0.465-4.206-1.11-6.313-1.659c-4.201-1.147-8.413-2.299-12.634-3.452
			c-16.714-5.161-33.448-10.872-49.654-18.209c-8.224-3.382-16.129-7.548-24.174-11.463l-1.504-0.744l-1.473-0.808l-2.942-1.626
			c-1.961-1.085-3.924-2.172-5.89-3.259c-1.963-1.089-3.927-2.179-5.894-3.27c-0.992-0.528-1.952-1.115-2.907-1.713l-2.875-1.772
			c-3.831-2.368-7.668-4.74-11.512-7.116c-3.783-2.47-7.48-5.087-11.228-7.633l-5.605-3.852c-1.84-1.326-3.629-2.729-5.447-4.092
			c-3.618-2.748-7.242-5.5-10.871-8.256c-28.327-22.92-54.361-49.424-76.023-79.524c-22.007-29.838-39.499-63.145-52.754-97.994
			c-0.453-1.075-0.813-2.185-1.191-3.288l-1.132-3.31l-2.259-6.621l-2.253-6.622l-0.282-0.828c0.042,0.155-0.376-1.142-0.412-1.3
			l-0.456-1.602l-0.912-3.204l-3.65-12.821c-0.149-0.544-0.312-1.047-0.45-1.625l-0.411-1.746l-0.819-3.491l-1.628-6.982
			l-1.615-6.982c-0.293-1.17-0.483-2.314-0.69-3.464l-0.619-3.447l-2.462-13.787c-0.686-4.616-1.213-9.259-1.821-13.886
			l-0.879-6.943c-0.219-2.322-0.372-4.652-0.56-6.978l-1.05-13.952l-0.377-13.98c-0.037-2.329-0.175-4.656-0.126-6.985l0.156-6.985
			l0.162-6.98c0.078-2.325,0.046-4.653,0.264-6.971L-7.405,371l0.254-3.474c0.101-1.156,0.268-2.307,0.399-3.46l0.84-6.913
			l0.844-6.906c0.155-1.148,0.251-2.305,0.455-3.446l0.585-3.427c0.785-4.565,1.568-9.129,2.352-13.69
			c7.165-36.303,18.879-71.512,35.225-104.059l3.021-6.116l0.755-1.527l0.822-1.493l1.649-2.98c2.2-3.969,4.398-7.934,6.594-11.894
			c2.315-3.891,4.737-7.712,7.098-11.559l3.566-5.749l3.822-5.575c2.563-3.701,5.056-7.442,7.67-11.087
			c2.713-3.574,5.422-7.144,8.128-10.708l2.029-2.669l1.014-1.333l1.076-1.285l4.298-5.133l4.292-5.12
			c1.438-1.699,2.826-3.436,4.368-5.04c3.014-3.263,6.024-6.522,9.029-9.775l2.253-2.436c0.749-0.813,1.565-1.562,2.345-2.345
			l4.724-4.643l4.716-4.631l2.355-2.311c0.804-0.75,1.637-1.469,2.453-2.205c3.28-2.922,6.555-5.839,9.824-8.751l2.45-2.18
			l2.547-2.063l5.094-4.11l5.084-4.098l2.538-2.044l2.628-1.924c3.507-2.554,7.008-5.103,10.501-7.647l2.619-1.904
			c0.882-0.621,1.798-1.191,2.695-1.789c1.803-1.181,3.604-2.361,5.403-3.54c14.263-9.63,29.311-17.717,44.335-25.339
			c3.831-1.755,7.653-3.507,11.466-5.254c1.905-0.872,3.809-1.743,5.709-2.612c1.914-0.839,3.874-1.566,5.804-2.352
			c3.872-1.542,7.734-3.079,11.586-4.612c1.911-0.805,3.878-1.45,5.835-2.115c1.956-0.667,3.909-1.333,5.859-1.998
			c1.95-0.664,3.897-1.327,5.841-1.989l2.914-0.991l0.728-0.248c0.01-0.003,0.78-0.266,0.967-0.312l1.441-0.41
			c3.842-1.094,7.674-2.185,11.495-3.272c1.91-0.544,3.818-1.087,5.723-1.629c1.957-0.502,3.987-0.942,5.972-1.414
			c3.988-0.923,7.963-1.844,11.927-2.762c0.99-0.22,1.98-0.476,2.968-0.665l2.962-0.53c1.972-0.353,3.941-0.704,5.908-1.056
			c3.936-0.676,7.839-1.458,11.763-2.036c3.935-0.5,7.856-0.999,11.766-1.496c1.954-0.247,3.903-0.494,5.85-0.74
			c1.946-0.248,3.909-0.328,5.856-0.499c31.173-2.722,61.721-1.732,90.761,2.34c1.824,0.184,3.621,0.545,5.421,0.843
			c1.799,0.309,3.594,0.618,5.385,0.926c3.578,0.632,7.15,1.194,10.684,1.878c3.514,0.781,7.012,1.559,10.494,2.333
			c1.74,0.388,3.476,0.774,5.207,1.16c0.864,0.2,1.734,0.37,2.591,0.594l2.559,0.7c13.66,3.593,26.921,7.634,39.602,12.424
			c25.413,9.441,48.73,21.059,69.708,33.947c20.989,12.888,39.637,27.042,56.021,41.557c4.018,3.714,7.971,7.369,11.857,10.963
			c3.751,3.734,7.365,7.478,10.951,11.112c0.894,0.911,1.783,1.818,2.669,2.721c0.859,0.929,1.685,1.881,2.521,2.814
			c1.667,1.872,3.318,3.727,4.953,5.564c1.635,1.836,3.253,3.655,4.856,5.456c1.572,1.826,3.028,3.722,4.524,5.551
			c2.946,3.694,5.909,7.249,8.665,10.839c2.663,3.66,5.269,7.241,7.815,10.741c0.636,0.875,1.269,1.744,1.896,2.608l0.94,1.292
			l0.872,1.329c1.156,1.768,2.299,3.514,3.428,5.238c2.246,3.455,4.478,6.795,6.573,10.096c1.976,3.375,3.898,6.661,5.767,9.854
			c1.843,3.206,3.76,6.243,5.295,9.373c1.605,3.087,3.16,6.078,4.664,8.971c1.495,2.895,3.003,5.657,4.205,8.446
			c2.516,5.517,4.844,10.622,6.978,15.298c1.898,4.774,3.623,9.111,5.168,12.995c0.765,1.943,1.516,3.761,2.162,5.486
			c0.594,1.745,1.147,3.373,1.66,4.88c1.025,3.014,1.888,5.551,2.583,7.593c1.389,4.083,2.105,6.189,2.105,6.189
			s-0.785-2.083-2.307-6.119c-0.761-2.017-1.705-4.522-2.827-7.498c-0.562-1.488-1.166-3.093-1.815-4.814
			c-0.701-1.7-1.511-3.491-2.336-5.405c-1.666-3.82-3.526-8.086-5.574-12.782c-2.275-4.586-4.759-9.593-7.443-15.003
			c-1.284-2.732-2.876-5.434-4.457-8.263c-1.587-2.824-3.229-5.745-4.924-8.76c-1.623-3.055-3.629-6.013-5.561-9.134
			c-1.956-3.105-3.969-6.3-6.036-9.583c-2.186-3.205-4.506-6.444-6.842-9.792c-1.173-1.67-2.359-3.361-3.561-5.073l-0.905-1.286
			l-0.973-1.249c-0.65-0.835-1.305-1.675-1.963-2.52c-2.63-3.377-5.32-6.833-8.071-10.365c-2.839-3.459-5.884-6.876-8.909-10.426
			c-1.535-1.756-3.029-3.579-4.64-5.329c-1.64-1.725-3.296-3.467-4.967-5.225c-1.671-1.758-3.357-3.532-5.06-5.323
			c-0.854-0.892-1.696-1.803-2.572-2.69c-0.901-0.861-1.808-1.726-2.719-2.594c-3.649-3.464-7.323-7.031-11.129-10.581
			c-3.936-3.407-7.938-6.872-12.006-10.393c-16.556-13.729-35.278-26.992-56.186-38.907c-20.896-11.916-43.973-22.479-68.927-30.833
			c-12.452-4.247-25.43-7.737-38.746-10.782l-2.494-0.597c-0.834-0.19-1.682-0.325-2.523-0.491
			c-1.686-0.317-3.376-0.636-5.069-0.955c-3.386-0.639-6.786-1.28-10.202-1.924c-3.432-0.548-6.899-0.975-10.368-1.472
			c-1.735-0.241-3.474-0.482-5.217-0.724c-1.744-0.231-3.483-0.525-5.248-0.643c-28.104-3.006-57.448-2.984-87.159,0.589
			c-1.856,0.224-3.727,0.356-5.58,0.656c-1.853,0.297-3.708,0.596-5.568,0.894c-3.715,0.595-7.443,1.192-11.183,1.791
			c-3.726,0.673-7.428,1.548-11.159,2.313c-1.863,0.396-3.729,0.791-5.598,1.188l-2.804,0.594c-0.93,0.209-1.832,0.478-2.75,0.714
			c-3.656,0.971-7.323,1.946-11.001,2.923c-1.843,0.499-3.669,0.946-5.531,1.486c-1.886,0.604-3.775,1.209-5.667,1.815
			c-3.783,1.212-7.577,2.427-11.382,3.646l-1.427,0.458l-1.135,0.432l-2.738,1.035c-1.827,0.69-3.655,1.381-5.486,2.072
			c-1.831,0.691-3.664,1.382-5.499,2.075c-1.836,0.69-3.683,1.359-5.469,2.186c-3.603,1.573-7.215,3.15-10.836,4.732
			c-1.804,0.804-3.637,1.547-5.422,2.402c-1.771,0.883-3.545,1.768-5.321,2.653c-3.55,1.768-7.109,3.539-10.677,5.315
			c-13.958,7.681-27.892,15.744-41.007,25.253c-1.655,1.163-3.313,2.326-4.971,3.491c-0.825,0.588-1.669,1.15-2.479,1.761
			l-2.401,1.874c-3.202,2.496-6.411,4.997-9.625,7.502l-2.408,1.882l-2.317,2l-4.641,4.002l-4.649,4.005l-2.325,2.007l-2.227,2.122
			c-2.971,2.826-5.947,5.657-8.928,8.492c-0.742,0.712-1.5,1.408-2.229,2.134l-2.131,2.237l-4.267,4.477l-4.274,4.479
			c-0.704,0.755-1.446,1.475-2.12,2.259l-2.028,2.348c-2.706,3.127-5.416,6.26-8.129,9.397c-1.392,1.537-2.631,3.207-3.919,4.835
			l-3.845,4.906l-3.851,4.908l-0.964,1.228l-0.902,1.275l-1.807,2.551c-2.41,3.398-4.824,6.8-7.24,10.207
			c-2.32,3.472-4.519,7.033-6.79,10.546l-3.385,5.288l-3.132,5.453c-2.072,3.646-4.208,7.258-6.238,10.933
			c-1.914,3.738-3.83,7.48-5.748,11.227l-1.44,2.807l-0.717,1.405l-0.651,1.439l-2.607,5.756
			c-14.148,30.601-23.839,63.404-29.329,96.877c-0.58,4.201-1.16,8.405-1.741,12.61l-0.438,3.151
			c-0.155,1.049-0.203,2.112-0.31,3.168l-0.561,6.342l-0.565,6.34c-0.086,1.057-0.208,2.111-0.266,3.171l-0.123,3.182l-0.504,12.722
			c-0.137,2.118-0.028,4.243-0.029,6.365l0.063,6.365l0.058,6.362c0.022,2.12,0.227,4.237,0.33,6.355l0.751,12.699l1.378,12.645
			c0.239,2.104,0.44,4.214,0.707,6.314l1.014,6.275c0.694,4.18,1.299,8.37,2.054,12.533l2.647,12.418l0.658,3.103
			c0.219,1.034,0.424,2.078,0.711,3.058l1.596,5.969l1.582,5.964l0.786,2.981l0.392,1.49c0.133,0.499,0.329,1.05,0.49,1.572
			l4.066,12.695l1.017,3.173l0.508,1.586c0.114,0.376-0.113-0.398,0.117,0.278l0.281,0.739l2.24,5.913l2.233,5.91l1.113,2.953
			c0.372,0.983,0.725,1.975,1.169,2.929c13.002,31.015,29.623,60.319,50.136,86.271c20.172,26.213,44.107,48.955,69.807,68.43
			c3.293,2.33,6.581,4.657,9.863,6.979c1.646,1.153,3.261,2.347,4.925,3.465l5.072,3.232c3.387,2.137,6.717,4.349,10.124,6.42
			c3.461,1.982,6.916,3.962,10.364,5.938l2.582,1.483c0.856,0.501,1.717,0.992,2.61,1.426l5.292,2.702l5.276,2.701l2.632,1.35
			l1.316,0.672l1.348,0.607c7.206,3.19,14.246,6.658,21.576,9.368c14.421,5.995,29.263,10.475,43.999,14.529
			c3.72,0.885,7.431,1.767,11.132,2.646c1.855,0.419,3.684,0.937,5.551,1.274c1.864,0.348,3.726,0.694,5.586,1.042
			c3.719,0.685,7.418,1.417,11.12,2.067c3.724,0.511,7.439,1.021,11.144,1.528c29.639,4.038,59.042,3.789,87.189,0.616
			c7.063-0.606,13.989-1.928,20.887-2.998c1.719-0.301,3.452-0.494,5.15-0.879c1.701-0.364,3.399-0.729,5.095-1.093
			c3.388-0.721,6.764-1.439,10.127-2.155c1.721-0.32,3.251-0.805,4.854-1.219c1.587-0.425,3.171-0.849,4.752-1.271
			c1.581-0.419,3.159-0.836,4.733-1.253l2.36-0.62l1.178-0.308c0.391-0.101,0.775-0.196,1.229-0.352
			c3.485-1.116,6.957-2.228,10.414-3.335c1.729-0.554,3.453-1.106,5.175-1.657l2.579-0.827c0.859-0.273-0.443,0.144-0.1,0.02
			l0.586-0.218l1.171-0.436c3.119-1.156,6.225-2.308,9.317-3.453c3.087-1.156,6.089-2.489,9.116-3.71
			c1.509-0.622,3.015-1.242,4.517-1.861c1.478-0.675,2.951-1.349,4.422-2.021c2.932-1.363,5.887-2.636,8.761-4.045
			c11.52-5.592,22.481-11.712,32.961-18.099c20.79-13.051,39.475-27.433,55.671-42.764c8.2-7.555,15.643-15.477,22.718-23.289
			c1.721-1.997,3.429-3.98,5.124-5.949c0.846-0.985,1.688-1.966,2.528-2.943c0.806-1.007,1.608-2.01,2.409-3.008
			c1.602-1.994,3.191-3.974,4.769-5.937c1.546-1.988,3.009-4.017,4.501-5.994c11.84-15.904,21.617-31.714,29.583-46.862
			c7.967-15.154,14.211-29.601,19.063-42.908c4.847-13.312,8.464-25.428,11.158-36.07c0.717-2.649,1.223-5.246,1.813-7.712
			c0.543-2.478,1.162-4.83,1.582-7.117c0.438-2.283,0.855-4.461,1.252-6.533c0.377-2.05,0.837-4.087,1.063-5.815
			c0.554-3.535,1.043-6.658,1.466-9.354c0.113-0.625,0.2-1.432,0.289-2.152c0.089-0.728,0.174-1.423,0.254-2.086
			c0.162-1.327,0.308-2.527,0.438-3.598c0.521-4.281,0.79-6.49,0.79-6.49L823.083,451.447z"/>
		<g>
			<polygon fill="#B3B3B3" points="769.23,277.744 689.506,523.061 782.64,459.37 884.094,508.694 			"/>
		</g>
	</g>
</g>
<path fill="none" d="M464.792,400c0-57.566,25.026-109.285,64.791-144.876c-34.389-30.78-79.799-49.499-129.583-49.499
	s-95.194,18.718-129.583,49.498c39.765,35.592,64.792,87.311,64.792,144.877c0,57.565-25.027,109.286-64.792,144.877
	c34.389,30.78,79.799,49.498,129.583,49.498s95.194-18.718,129.583-49.498C489.818,509.286,464.792,457.565,464.792,400z"/>
<path fill="none" stroke="#B3B3B3" stroke-width="60" d="M114.515,125C189.994,192.557,237.5,290.731,237.5,400
	c0,109.271-47.506,207.44-122.985,275"/>
<line fill="none" stroke="#B3B3B3" stroke-width="60" x1="400" y1="11.782" x2="400" y2="812.5"/>
<path fill="none" stroke="#B3B3B3" stroke-width="60" d="M675,675c-69.044-67.557-112.5-165.731-112.5-275
	c0-109.271,43.456-207.44,112.5-275"/>
</svg>
