<?xml version="1.0" encoding="utf-8"?>
<!-- Generator: Adobe Illustrator 16.0.0, SVG Export Plug-In . SVG Version: 6.00 Build 0)  -->
<!DOCTYPE svg PUBLIC "-//W3C//DTD SVG 1.1//EN" "http://www.w3.org/Graphics/SVG/1.1/DTD/svg11.dtd">
<svg version="1.1" id="图层_1" xmlns="http://www.w3.org/2000/svg" xmlns:xlink="http://www.w3.org/1999/xlink" x="0px" y="0px"
	 width="800px" height="800px" viewBox="0 0 800 800" enable-background="new 0 0 800 800" xml:space="preserve">
<circle fill="none" stroke="#B3B3B3" stroke-width="60" cx="400" cy="400" r="389.907"/>
<path fill="none" d="M527.4,272.137c-9.684,0-17.563,7.878-17.563,17.561c0,0.286-0.012,0.572-0.047,0.852l-11.705,120.003
	c-0.459,4.71-4.689,8.088-9.297,7.912c-4.734-0.304-8.367-4.3-8.219-9.033l5.852-190.248c0-12.645-10.506-23.146-23.414-23.146
	c-13.252,0-24.879,10.941-24.879,23.415l-7.328,145.327c-0.24,4.682-4.334,9.798-9.09,9.798c-4.768,0-9.111-6.945-9.111-11.708
	V178.477c0-13.349-9.113-23.415-21.633-23.415c-12.713,0-22.512,10.284-22.512,23.415l-5.051,203.641
	c-0.119,4.745-4.619,10.021-8.688,10.021c-4.071,0-8.633-5.203-8.805-9.93l-5.842-164.638c-0.006-15.823-9.638-27.022-23.438-27.022
	s-23.433,10.65-23.433,26.159l5.763,268.994c0.074,3.618-2.075,6.865-5.42,8.254c-3.338,1.39-7.197,0.561-9.695-2.053
	l-49.116-51.186c-5.631-5.637-13.251-8.815-21.334-8.815c-8.078,0-15.704,3.174-21.46,8.93c-5.779,5.78-8.98,13.445-9.021,21.591
	c-0.035,8.135,3.104,15.778,8.837,21.512c0.635,0.691,30.841,34.403,74.042,77.608l7.191,7.214
	c40.096,40.32,71.76,72.167,135.829,72.167c64.049,0,84.057-29.612,101.949-65.393c14.59-29.193,16.465-54.776,20.547-110.839
	c0.594-8.141,1.232-16.903,1.965-26.398c5.615-72.903,11.217-143.126,11.686-148.911C544.789,279.843,536.969,272.137,527.4,272.137
	z"/>
<path fill="#B3B3B3" d="M572.969,427.171c-0.91,11.808-1.703,22.703-2.441,32.824c-5.076,69.708-7.408,101.519-25.549,137.818
	c-22.246,44.488-47.125,81.308-126.764,81.308c-79.662,0-119.033-39.598-168.889-89.731l-8.941-8.971
	c-53.715-53.721-91.274-95.638-92.063-96.498c-7.129-7.129-11.031-16.633-10.988-26.747c0.05-10.128,4.03-19.659,11.216-26.847
	c7.158-7.156,16.64-11.103,26.684-11.103c10.051,0,19.525,3.952,26.527,10.961l61.071,63.644c3.106,3.25,7.904,4.281,12.055,2.553
	c4.159-1.727,6.831-5.764,6.739-10.263l-7.166-334.467c0-19.283,11.978-32.526,29.136-32.526c17.159,0,29.136,13.925,29.143,33.599
	l7.264,204.711c0.213,5.877,5.885,12.346,10.948,12.346c5.059,0,10.654-6.561,10.802-12.46l6.28-253.208
	c0-16.327,12.184-29.114,27.991-29.114c15.566,0,26.898,12.517,26.898,29.114v229.275c0,5.921,5.4,14.558,11.328,14.558
	c5.914,0,11.004-6.361,11.303-12.183l9.111-180.7c0-15.51,14.457-29.114,30.936-29.114c16.049,0,29.113,13.058,29.113,28.78
	l-7.277,236.554c-0.184,5.886,4.334,10.854,10.219,11.232c5.73,0.218,10.99-3.982,11.561-9.838l14.555-149.212
	c0.043-0.348,0.057-0.705,0.057-1.06c0-12.04,9.799-21.835,21.838-21.835c11.898,0,21.621,9.582,21.836,21.445
	C586.916,249.209,579.951,336.524,572.969,427.171z"/>
<line fill="#FF0000" stroke="#B3B3B3" stroke-width="30" x1="562.5" y1="270.343" x2="682.843" y2="150"/>
<line fill="#FF0000" stroke="#B3B3B3" stroke-width="30" x1="117.157" y1="682.843" x2="250" y2="550"/>
<path fill="none" stroke="#F15A24" stroke-width="10" d="M362.5,112.5"/>
<path fill="none" stroke="#F15A24" stroke-width="10" d="M437.5,112.5"/>
</svg>
