<?xml version="1.0" encoding="utf-8"?>
<!-- Generator: Adobe Illustrator 16.0.0, SVG Export Plug-In . SVG Version: 6.00 Build 0)  -->
<!DOCTYPE svg PUBLIC "-//W3C//DTD SVG 1.1//EN" "http://www.w3.org/Graphics/SVG/1.1/DTD/svg11.dtd">
<svg version="1.1" id="图层_1" xmlns="http://www.w3.org/2000/svg" xmlns:xlink="http://www.w3.org/1999/xlink" x="0px" y="0px"
	 width="800px" height="800px" viewBox="0 0 800 800" enable-background="new 0 0 800 800" xml:space="preserve">
<path fill="none" stroke="#F15A24" stroke-width="10" d="M362.5,112.5"/>
<path fill="none" stroke="#F15A24" stroke-width="10" d="M437.5,112.5"/>
<path fill="none" d="M464.791,400c0-57.565,25.026-109.285,64.791-144.876c-34.389-30.779-79.799-49.499-129.582-49.499
	c-49.784,0-95.194,18.719-129.583,49.498c39.765,35.592,64.792,87.312,64.792,144.877s-25.027,109.286-64.792,144.878
	c34.389,30.779,79.799,49.497,129.583,49.497c49.783,0,95.193-18.718,129.582-49.497C489.818,509.286,464.791,457.565,464.791,400z"
	/>
<path fill="none" stroke="#B3B3B3" stroke-width="30" d="M200,0"/>
<path fill="none" stroke="#B3B3B3" stroke-width="30" d="M200,800"/>
<path fill="#B3B3B3" d="M357.225,618.186v-6.166l1.371-5.47l2.055-5.47l2.735-4.796l2.734-4.108l4.105-4.101l4.104-4.1l4.79-2.74
	l4.79-2.74l5.47-2.055l6.159-0.674l6.16-0.696l8.216,0.696l7.515,2.044l7.535,3.425l5.47,4.11l5.469,5.47l2.74,2.729l2.056,2.738
	l2.729,4.796l2.056,5.47l0.686,5.47l0.685,6.166l-0.685,6.153l-0.686,5.47l-2.056,5.48l-2.729,4.1l-3.425,4.784l-3.427,4.109
	l-4.784,4.109l-4.099,2.729l-5.479,2.74l-5.471,2.043l-6.154,1.371h-6.16h-6.16l-6.159-1.371l-5.47-2.043l-4.79-2.74l-4.79-2.729
	l-4.104-4.109l-4.105-4.109l-2.734-4.784l-2.735-4.1l-2.055-5.48l-1.371-5.47L357.225,618.186L357.225,618.186z M397.594,530.609
	l5.475-0.686l6.15-2.056l3.425-1.37l4.099-2.055l3.427-2.045l2.739-1.37l2.056-2.045l0.685-2.055l1.37-1.37l0.675-2.055h0.686l0,0
	v-2.057l2.056-9.568l8.209-67.73l18.474-186.092l3.415-49.943v-8.209l-1.358-8.209l-2.74-6.839l-2.057-4.79l-2.738-4.104
	l-2.74-4.104l-3.414-4.104l-4.1-3.42l-3.426-3.419l-6.164-3.425l-6.146-2.733l-5.479-2.735l-6.155-1.37l-6.839-1.365l-6.846-0.689
	l-7.529,0.689l-7.525,0.681l-6.84,2.055l-6.839,2.734l-6.844,4.104l-6.155,4.104l-5.476,5.477l-4.79,6.839l-2.049,3.42l-2.733,5.476
	l-2.057,6.84l-1.363,8.209v8.895v16.419l17.098,212.091l7.525,62.938l1.369,10.949l0.686,2.74l1.37,4.783l2.734,4.101l2.056,4.108
	l3.42,3.426l3.419,2.729l2.734,2.045l2.056,1.369l3.42,2.056l4.785,1.369L397.594,530.609z"/>
<rect x="196" y="0" fill="none" stroke="#B3B3B3" stroke-width="60" width="409.5" height="800"/>
</svg>
