<?xml version="1.0" encoding="utf-8"?>
<!-- Generator: Adobe Illustrator 16.0.0, SVG Export Plug-In . SVG Version: 6.00 Build 0)  -->
<!DOCTYPE svg PUBLIC "-//W3C//DTD SVG 1.1//EN" "http://www.w3.org/Graphics/SVG/1.1/DTD/svg11.dtd">
<svg version="1.1" id="图层_1" xmlns="http://www.w3.org/2000/svg" xmlns:xlink="http://www.w3.org/1999/xlink" x="0px" y="0px"
	 width="800px" height="800px" viewBox="0 0 800 800" enable-background="new 0 0 800 800" xml:space="preserve">
<path fill="none" stroke="#B3B3B3" stroke-width="60" d="M785,400c0-115.503-50.216-219.272-130-290.685
	C575.215,180.727,525,284.497,525,400c0,115.504,50.215,219.274,130,290.687C734.784,619.274,785,515.504,785,400z"/>
<path fill="none" stroke="#B3B3B3" stroke-width="60" d="M15,400c0-115.503,50.215-219.272,130-290.685
	C224.785,180.727,275,284.497,275,400c0,115.504-50.215,219.274-130,290.687C65.215,619.274,15,515.504,15,400z"/>
<circle fill="none" stroke="#B3B3B3" stroke-width="60" cx="400" cy="400" r="125"/>
<circle fill="none" stroke="#B3B3B3" stroke-width="60" cx="400" cy="400" r="387.5"/>
</svg>
